<?xml version="1.0" encoding="utf-8"?>
<!-- Generator: Adobe Illustrator 21.0.2, SVG Export Plug-In . SVG Version: 6.00 Build 0)  -->
<svg version="1.1" id="Layer_1" xmlns="http://www.w3.org/2000/svg" xmlns:xlink="http://www.w3.org/1999/xlink" x="0px" y="0px"
	 viewBox="0 0 708.6 139" style="enable-background:new 0 0 708.6 139;" xml:space="preserve">
<style type="text/css">
	.st0{fill:#ffffff}
</style>
<path class="st0" d="M241.5,80l-3.2,9.7h33.2l-5,15.3h-53.6l20.6-63h52.3l-4.9,15.1h-32l-2.7,8.4h26.9l-4.8,14.4L241.5,80L241.5,80z
	 M146.9,97.9l20.2,20.2l-20.2,20.2l-20.2-20.2l0,0L78.5,69.9h0.1l0,0l27.9-28.7L90.2,25.4l-44,45.1L90.7,115l16.5-16.5l20.2,20.2
	L107.1,139l-19.9-19.9L68.4,138l-20.2-20.2l0,0L0,69.5l0.1-0.1l0,0l47.5-48.9l0,0L67.5,0l20.3,19.9l18.3-18.8l20.1,19.5l19.6-20.2
	l20.5,19.9l-19.9,20.5l-16.6-16.2L85.9,69.8l44.5,44.5L146.9,97.9z M68,40.4L51.4,24.2L7.5,69.4L52,113.9l15.1-15.1L38.8,70.5l0,0
	l0,0L68,40.4z M317.5,42.1h-20.3l-20.6,63h49.8l5.5-16.7h-29.5L317.5,42.1z M226,42.1h-61.3l-5.4,16.5h20.8L164.9,105h20.4
	l15.2-46.4h20.2L226,42.1z M528.2,42.1l-9.7,29.7c-0.9,2.8-1.5,5.3-1.9,7.5l-0.2,1.1l-1.1-4.9c-0.1-0.7-0.2-1.4-0.2-2.1
	c-0.1-0.7-0.2-1.4-0.4-2l-8.8-29.3h-19.3l-20.6,63h19.3l9.6-29.5c0.9-2.7,1.5-5.2,1.9-7.5l0.2-1c0.3,1.2,0.5,2.3,0.7,3.4
	c0.6,3.6,1,5.4,1,5.6l8.9,29.1h19.2l20.6-63h-19.2V42.1z M688.5,105.1l0.1-8.3H665l-5.4,8.3H643l-1.2-3.1l42.6-59.9H705l3.6,63
	H688.5z M689,83.5l-0.6-21.8l-14.9,21.8H689z M660.5,42.1H636l-28.5,20.8l6.8-20.8h-20.1l-20.6,63h20.2l6.6-20.1l8.4-5.2l9.3,25.2
	h21.7l2.2-3.1l-13.8-36.7L660.5,42.1z M467.8,70c-0.2,0.8-0.6,2-1.1,3.6c-3.4,10.2-9.1,18.3-16.9,24.2c-7.8,5.9-16.9,8.9-27.3,8.9
	c-8.8,0-15.4-2.3-19.7-6.9c-4.3-4.6-5.8-10.8-4.6-18.8c0.3-2.1,0.9-4.6,1.8-7.4c3.4-10,9-18.1,17-24.1c7.9-6,17-9,27.2-9
	c8.9,0,15.4,2.3,19.7,6.8c4.3,4.5,5.8,10.8,4.6,18.8C468.2,67.9,468,69.2,467.8,70 M447.8,67.5c0.5-3.4,0.2-6.1-0.9-7.9
	c-1.4-2.2-3.9-3.3-7.8-3.3c-4.8,0-8.8,1.7-12.1,5.3c-2.5,2.8-4.7,6.8-6.4,12.1c-0.3,1-0.6,2-0.9,3.1s-0.5,2.1-0.6,3.1
	c-0.5,3.4-0.2,6.1,0.9,7.9c1.4,2.2,4,3.3,7.8,3.3c4.7,0,8.7-1.7,12-5.2c2.6-2.8,4.8-6.8,6.5-12.1C447,71.2,447.5,69.1,447.8,67.5
	 M560.5,42.1l-20.6,63h20.8l20.6-63C581.3,42.1,560.5,42.1,560.5,42.1z M405.8,42.1h-61.3L339,58.6h20.8L344.6,105H365l15.2-46.4
	h20.2L405.8,42.1z"/>
</svg>
